<svg xmlns="http://www.w3.org/2000/svg" viewBox="0 0 1200 800" role="img" aria-label="Neutrale Konzeptvorschau">
  <defs>
    <linearGradient id="bg" x1="0" y1="0" x2="1" y2="1">
      <stop offset="0" stop-color="#e9edf2"/>
      <stop offset="1" stop-color="#c8d0da"/>
    </linearGradient>
    <linearGradient id="line" x1="0" y1="0" x2="1" y2="0">
      <stop offset="0" stop-color="#ffffff" stop-opacity=".2"/>
      <stop offset=".5" stop-color="#ffffff" stop-opacity=".65"/>
      <stop offset="1" stop-color="#ffffff" stop-opacity=".2"/>
    </linearGradient>
  </defs>
  <rect width="1200" height="800" fill="url(#bg)"/>
  <circle cx="880" cy="190" r="180" fill="#ffffff" opacity=".18"/>
  <circle cx="320" cy="610" r="240" fill="#ffffff" opacity=".14"/>
  <path d="M60 650c120-120 220-150 360-150s230 55 360 55 180-25 360-160" fill="none" stroke="#ffffff" stroke-opacity=".35" stroke-width="14" stroke-linecap="round"/>
  <rect x="90" y="90" width="1020" height="620" rx="34" fill="#ffffff" opacity=".38" stroke="#ffffff" stroke-opacity=".45"/>
  <rect x="140" y="145" width="920" height="18" rx="9" fill="url(#line)"/>
  <rect x="140" y="200" width="470" height="18" rx="9" fill="#ffffff" opacity=".42"/>
  <rect x="140" y="238" width="360" height="18" rx="9" fill="#ffffff" opacity=".28"/>
  <rect x="140" y="300" width="620" height="260" rx="26" fill="#ffffff" opacity=".32"/>
  <rect x="800" y="300" width="260" height="260" rx="26" fill="#ffffff" opacity=".22"/>
  <path d="M835 475h190" stroke="#ffffff" stroke-opacity=".5" stroke-width="10" stroke-linecap="round"/>
  <path d="M835 510h140" stroke="#ffffff" stroke-opacity=".35" stroke-width="10" stroke-linecap="round"/>
  <text x="140" y="620" fill="#223043" font-family="Segoe UI, Arial, sans-serif" font-size="28" font-weight="700">Konzeptvorschau</text>
  <text x="140" y="658" fill="#3f5063" font-family="Segoe UI, Arial, sans-serif" font-size="18">Neutrale Platzhaltergrafik statt Originalbild</text>
</svg>