<svg xmlns="http://www.w3.org/2000/svg" viewBox="0 0 1200 800" role="img" aria-label="Konzeptvorschau für Automobile Lipperweg">
  <defs>
    <linearGradient id="bg" x1="0" y1="0" x2="1" y2="1">
      <stop offset="0%" stop-color="#07111f"/>
      <stop offset="55%" stop-color="#0d1627"/>
      <stop offset="100%" stop-color="#1d3457"/>
    </linearGradient>
    <linearGradient id="shine" x1="0" y1="0" x2="1" y2="0">
      <stop offset="0%" stop-color="#ffffff" stop-opacity=".08"/>
      <stop offset="100%" stop-color="#ffffff" stop-opacity=".01"/>
    </linearGradient>
  </defs>
  <rect width="1200" height="800" fill="url(#bg)"/>
  <circle cx="1040" cy="130" r="220" fill="#fff" opacity=".04"/>
  <circle cx="170" cy="620" r="190" fill="#fff" opacity=".035"/>
  <path d="M100 520h1000" stroke="#9fb6d7" stroke-opacity=".12" stroke-width="2"/>
  <path d="M160 470c40-82 116-126 214-126h212c97 0 171 44 211 126" fill="none" stroke="#ffffff" stroke-opacity=".18" stroke-width="20" stroke-linecap="round"/>
  <path d="M214 472c20-52 60-78 118-78h520c58 0 98 26 118 78" fill="none" stroke="#d7dde8" stroke-opacity=".26" stroke-width="18" stroke-linecap="round"/>
  <rect x="200" y="290" width="800" height="250" rx="36" fill="url(#shine)" stroke="#ffffff" stroke-opacity=".08"/>
  <circle cx="320" cy="556" r="58" fill="#f1f5f9" opacity=".82"/>
  <circle cx="320" cy="556" r="28" fill="#0f1724"/>
  <circle cx="884" cy="556" r="58" fill="#f1f5f9" opacity=".82"/>
  <circle cx="884" cy="556" r="28" fill="#0f1724"/>
  <text x="92" y="656" fill="#fff" font-family="Segoe UI, Arial, sans-serif" font-size="46" font-weight="700" letter-spacing=".06em">KONZEPTVORSCHAU</text>
  <text x="92" y="708" fill="#fff" opacity=".74" font-family="Segoe UI, Arial, sans-serif" font-size="22">Automobile Lipperweg · neutrale Platzhaltergrafik</text>
</svg>
