<svg xmlns="http://www.w3.org/2000/svg" viewBox="0 0 1200 800" role="img" aria-label="Bestandsplatzhalter">
  <defs>
    <linearGradient id="bg" x1="0" y1="0" x2="1" y2="1">
      <stop offset="0%" stop-color="#0d1320"/>
      <stop offset="100%" stop-color="#203a5f"/>
    </linearGradient>
    <linearGradient id="card" x1="0" y1="0" x2="1" y2="1">
      <stop offset="0%" stop-color="#1d2736"/>
      <stop offset="100%" stop-color="#0f1724"/>
    </linearGradient>
  </defs>
  <rect width="1200" height="800" fill="url(#bg)"/>
  <rect x="70" y="90" width="520" height="620" rx="34" fill="url(#card)" stroke="#fff" stroke-opacity=".08"/>
  <rect x="650" y="130" width="480" height="140" rx="28" fill="#f7f8fb" opacity=".95"/>
  <rect x="650" y="300" width="480" height="140" rx="28" fill="#f7f8fb" opacity=".82"/>
  <rect x="650" y="470" width="480" height="140" rx="28" fill="#f7f8fb" opacity=".7"/>
  <path d="M145 420c18-46 55-69 110-69h200c52 0 90 23 108 69" fill="none" stroke="#d8e2f1" stroke-opacity=".22" stroke-width="18" stroke-linecap="round"/>
  <circle cx="212" cy="532" r="56" fill="#f1f5f9" opacity=".85"/>
  <circle cx="212" cy="532" r="24" fill="#0d1320"/>
  <circle cx="476" cy="532" r="56" fill="#f1f5f9" opacity=".85"/>
  <circle cx="476" cy="532" r="24" fill="#0d1320"/>
  <rect x="114" y="130" width="210" height="18" rx="9" fill="#8eb0db" opacity=".8"/>
  <rect x="114" y="166" width="308" height="12" rx="6" fill="#fff" opacity=".18"/>
  <rect x="674" y="164" width="320" height="12" rx="6" fill="#0f1724" opacity=".12"/>
  <rect x="674" y="188" width="250" height="12" rx="6" fill="#0f1724" opacity=".09"/>
  <text x="92" y="748" fill="#fff" font-family="Segoe UI, Arial, sans-serif" font-size="40" font-weight="700" letter-spacing=".06em">BESTANDSPLATZHALTER</text>
</svg>
